# xmcd
#
# Track frame offsets: 
#        150
#        13362
#        26908
#        38534
#        52287
#        64889
#        76317
#        88218
#        99956
#        111166
#        121655
#        132056
#        143493
#        155478
#        167302
#        179256
#        190534
#        201138
#        212974
#        224991
#        236450
#        248584
#        260619
#        274126
#        288920
#        302303
#
# Disc length: 4207 seconds
#
# Revision: 1
# Processed by: cddbd v1.5.2PL0 Copyright (c) Steve Scherf et al.
# Submitted via: ExactAudioCopyFreeDBPlugin 1.0
#
DISCID=70106d1a
DTITLE=Various Artist - Rare 1930's Blues Vol. 2 (1936-1940)
DYEAR=1995
DGENRE=Blues
TTITLE0=Little David - Original Sweet Patunia (Patootie Blues)
TTITLE1=Little David - Standing By a Lampost
TTITLE2=Little David - Ramblin' Mind Blues
TTITLE3=Little David - New Sweet Patuni
TTITLE4=Three Fifteen and His Squares - Saturday Night on Texas Avenue
TTITLE5=Three Fifteen and His Squares - Drop My Stuff
TTITLE6=Three Fifteen and His Squares - Mollie Mae Blues
TTITLE7=Three Fifteen and His Squares - Three Fifteen Blues
TTITLE8=The Jolly Three - Ain't Got a Dime Blues
TTITLE9=The Jolly Three - She's Got Too Much
TTITLE10=Dusky Dailey - Screamin' and Hollerin' Blues
TTITLE11=Dusky Dailey - I Would Do Anything for You
TTITLE12=Dusky Dailey - I Want You, I Need You
TTITLE13=Dusky Dailey - Flying Crow Blues
TTITLE14=Dusky Dailey - Can Cutter Blues
TTITLE15=Dusky Dailey - Pension Blues
TTITLE16=Dusky Dailey - Two Little Rooms
TTITLE17=Dusky Dailey - Miss Georgia Blues
TTITLE18=Dusky Dailey - Revenge Blues
TTITLE19=Dusky Dailey - Misunderstandin' Man
TTITLE20=Dusky Dailey - Lost Lovin' Blues
TTITLE21=Dusky Dailey - Take Me Back Baby
TTITLE22=George Davis - Radio Brown Blues
TTITLE23=George Davis - Fast Asleep Blues
TTITLE24=George Davis - Flesh Crawling Blues
TTITLE25=George Davis - I Don`t Want You
EXTD=
EXTT0=
EXTT1=
EXTT2=
EXTT3=
EXTT4=
EXTT5=
EXTT6=
EXTT7=
EXTT8=
EXTT9=
EXTT10=
EXTT11=
EXTT12=
EXTT13=
EXTT14=
EXTT15=
EXTT16=
EXTT17=
EXTT18=
EXTT19=
EXTT20=
EXTT21=
EXTT22=
EXTT23=
EXTT24=
EXTT25=
PLAYORDER=
